<svg width="640" height="480" xmlns="http://www.w3.org/2000/svg"><title>LDS TEMPLE</title><title>Layer 1</title><g fill="#fff"><path d="M348.78 1.656l-1.092 1.907 1.687.437 1.594 1.313-.44 3.343-.186 1.5s-.06.36 0 .53c.056.163.28.345.28.345l2.157 2.064V23.28l.97.22.563 6.688h1.468v2.406c-2.12.467-3.717 2.33-3.717 4.593 0 1.723.936 3.235 2.312 4.063h-1.156l-11.376 76.03v5.595h-1.28l-.002-5.375h-1.187l-1.813-9.125c.343-.138.594-.467.594-.844 0-.5-.44-.905-.97-.905-.526 0-.967.404-.967.906 0 .384.272.71.624.845L335 117.5h-1.156v6.53h.53v28.376h-.75v-3.812h-1.405l-2.095-11.813c.47-.188.813-.64.813-1.155 0-.687-.59-1.25-1.313-1.25-.722 0-1.313.563-1.313 1.25 0 .524.332.973.813 1.156l-2.094 11.814h-1.405v7.75h.78v24h-1.75v-4.938h-1.624l-2.467-12.28c.486-.197.875-.654.875-1.19 0-.712-.626-1.28-1.375-1.28-.75 0-1.375.568-1.375 1.28 0 .545.375 1 .875 1.19l-2.47 12.28h-1.624v9.22h.874v75h-8.188v-4.532h-7.47l.002 7.406h-5.938v-4.125h-7.438v7h-8.187v-68.688h.72v-7.437h-1.314l-2-9.906c.405-.154.69-.53.69-.97 0-.575-.49-1.06-1.095-1.06-.606 0-1.094.485-1.094 1.06 0 .433.295.81.69.97l-2 9.906h-1.314v4H271v-19.406h.625v-6.25H270.5l-1.72-9.563c.39-.147.69-.513.69-.936 0-.555-.48-1-1.064-1-.583 0-1.062.445-1.062 1 0 .416.277.785.656.937l-1.688 9.564h-1.156v3.062h-.594V147.72H265v-5.25h-.97l-1.467-7.376c.284-.108.5-.378.5-.688 0-.405-.356-.75-.782-.75-.425 0-.78.345-.78.75 0 .304.223.576.5.688l-1.47 7.375h-.967v4.31H258.5v-4.5l-9.188-61.468h-1c1.094-.618 1.844-1.733 1.844-3.03 0-1.705-1.254-3.16-2.937-3.5v-3.344c.76-.295 1.28-.983 1.28-1.813s-.52-1.518-1.28-1.813v-3.156h-1.564v3.156c-.76.295-1.312.983-1.312 1.813s.55 1.518 1.312 1.813v3.343c-1.684.343-2.97 1.797-2.97 3.5 0 1.3.752 2.414 1.845 3.032h-1l-9.186 61.47v4.5h-1.063v-4.313h-.936l-1.47-7.376a.747.747 0 0 0 .47-.688c0-.405-.355-.75-.78-.75a.748.748 0 0 0-.75.75c0 .31.183.58.467.688l-1.468 7.375h-.937v5.25h.406v22.936h-.593v-3.062h-1.125l-1.718-9.563c.38-.15.687-.52.687-.936 0-.555-.478-1-1.06-1-.584 0-1.064.445-1.064 1 0 .423.267.79.656.937l-1.687 9.564h-1.125v6.25h.594v19.406h-1.406v-4h-1.313l-1.97-9.906c.395-.16.69-.537.69-.97 0-.575-.52-1.06-1.126-1.06-.607 0-1.095.485-1.095 1.06 0 .44.283.816.688.97l-2 9.906h-1.282v7.438h.69v279.875h286.155V196.688h.688v-7.438h-1.282l-2-9.906c.405-.154.69-.53.69-.97 0-.575-.49-1.06-1.095-1.06-.606 0-1.094.485-1.094 1.06 0 .433.295.81.69.97l-2 9.906h-1.314v4h-1.406v-19.406h.625v-6.25h-1.156l-1.69-9.563c.39-.147.69-.513.69-.936 0-.555-.48-1-1.064-1-.583 0-1.062.445-1.062 1 0 .416.277.785.656.937l-1.688 9.564h-1.156v3.062h-.594V147.72h.438v-5.25h-.97l-1.467-7.376c.284-.108.5-.378.5-.688 0-.405-.356-.75-.782-.75-.425 0-.78.345-.78.75 0 .304.223.576.5.688l-1.5 7.375h-.938v4.31h-1.062v-4.5l-9.188-61.468h-1c1.094-.618 1.844-1.733 1.844-3.03 0-1.705-1.254-3.16-2.937-3.5v-3.344c.745-.3 1.28-.993 1.28-1.813s-.535-1.512-1.28-1.813v-3.156h-1.564v3.156c-.76.295-1.312.983-1.312 1.813s.55 1.518 1.312 1.813v3.343c-1.684.343-2.97 1.797-2.97 3.5.002 1.3.752 2.414 1.845 3.032h-1l-9.186 61.47v4.5h-1.063v-4.313h-.936l-1.47-7.376a.747.747 0 0 0 .47-.688c0-.405-.355-.75-.78-.75a.748.748 0 0 0-.752.75c0 .31.185.58.47.688l-1.47 7.375h-.937v5.25h.406v22.936h-.592v-3.062h-1.125l-1.72-9.563c.38-.15.688-.52.688-.936 0-.555-.478-1-1.06-1-.584 0-1.064.445-1.064 1 0 .423.267.79.656.937l-1.687 9.564h-1.156v6.25h.624v19.406h-1.406v-4h-1.313l-1.97-9.906c.395-.16.69-.537.69-.97 0-.575-.52-1.06-1.126-1.06-.607 0-1.095.485-1.095 1.06 0 .44.283.816.688.97l-2 9.906h-1.282v7.438h.69v68.687h-8.158v-7h-7.468v4.125h-5.938v-7.406h-7.47l.002 4.53h-8.188v-75h.875v-9.218H396.5l-2.438-12.28c.5-.19.844-.645.844-1.19 0-.712-.626-1.28-1.375-1.28-.748 0-1.342.568-1.342 1.28 0 .536.356.993.843 1.19l-2.467 12.28h-1.594v4.938h-1.783v-24h.782v-7.75h-1.408l-2.093-11.813a1.24 1.24 0 0 0 .81-1.155c0-.687-.59-1.25-1.31-1.25-.723 0-1.314.563-1.314 1.25 0 .515.375.967.844 1.156l-2.094 11.814H380v3.812h-.78V124.03h.56v-6.53h-1.186l-1.813-9.125a.904.904 0 0 0 .595-.844c0-.5-.44-.905-.97-.905-.526 0-.967.404-.967.906 0 .378.282.707.625.845l-1.844 9.125h-1.158v5.375h-1.312v-5.594l-11.375-76.03h-1.156a4.752 4.752 0 0 0 2.31-4.063c0-2.262-1.596-4.126-3.717-4.593v-2.688l1.156-.875v-5.25l.874-.56-.063-7.282 2.658 5.593s.335-.472.406-.718c.113-.393-.094-1.093-.094-1.093l-2.156-6.876-.344-.688-.438-.312h-1.718s.02-2.114-.188-3.156c-.07-.355-.312-1.063-.312-1.063s-.23-.604-.47-.78c-.297-.224-.658-.21-1.03-.22-.35-.01-.65-.01-.938.188-.162.11-.406.468-.406.468l-.125.5-4.688-4.374-1.156-1.75zm9.658 218.156a9.432 9.432 0 0 1 9.437 9.438v41.063H349V229.47c-.002-.075 0-.146 0-.22a9.432 9.432 0 0 1 9.438-9.438zM240.5 244.063c3.945 0 7.125 3.212 7.125 7.157v21.561h-14.28v-21.405-.156c0-3.946 3.21-7.157 7.155-7.157zm232.625 0c3.945 0 7.125 3.212 7.125 7.157v21.561h-14.28v-21.405-.156c0-3.946 3.21-7.157 7.155-7.157zm-114.688 45.5a9.432 9.432 0 0 1 9.438 9.438v60.812H349V299.22c-.002-.075 0-.146 0-.22a9.432 9.432 0 0 1 9.438-9.438zM240.5 290.938a7.113 7.113 0 0 1 7.125 7.125v21.562h-14.28V298.22v-.158c0-3.944 3.21-7.125 7.155-7.125zm232.625 0a7.112 7.112 0 0 1 7.125 7.125v21.562h-14.28V298.22v-.158c0-3.944 3.21-7.125 7.155-7.125zM297.5 294c4.686 0 8.47 4.127 8.47 9.188 0 5.06-3.784 9.156-8.47 9.156-4.686 0-8.5-4.096-8.5-9.156 0-5.06 3.814-9.188 8.5-9.188zm118.594 0c4.686 0 8.5 4.127 8.5 9.188 0 5.06-3.814 9.156-8.5 9.156s-8.47-4.096-8.47-9.156c0-5.06 3.784-9.188 8.47-9.188zM240.5 332.125a7.113 7.113 0 0 1 7.125 7.125v22.718h-14.28v-22.53-.188c0-3.945 3.21-7.125 7.155-7.125zm57 0a7.113 7.113 0 0 1 7.125 7.125v22.718h-14.28v-22.53h.03c0-.056-.03-.132-.03-.188 0-3.945 3.21-7.125 7.155-7.125zm118.594 0c3.944 0 7.156 3.18 7.156 7.125 0 .056-.03.132-.03.188h.03v22.53h-14.28v-22.53-.188a7.112 7.112 0 0 1 7.124-7.125zm57.03 0a7.113 7.113 0 0 1 7.126 7.125v22.718h-14.28v-22.53-.188c0-3.945 3.21-7.125 7.155-7.125zM240.5 376.938a7.113 7.113 0 0 1 7.125 7.125v23.936h-14.28v-23.78-.158c0-3.944 3.21-7.125 7.155-7.125zm232.625 0a7.113 7.113 0 0 1 7.125 7.125v23.936h-14.28v-23.78-.158c0-3.944 3.21-7.125 7.155-7.125zm-175.625 2.75c4.686 0 8.47 4.095 8.47 9.156 0 5.06-3.784 9.156-8.47 9.156-4.686 0-8.5-4.095-8.5-9.156 0-5.06 3.814-9.156 8.5-9.156zm118.594 0c4.686 0 8.5 4.095 8.5 9.156 0 5.06-3.814 9.156-8.5 9.156s-8.47-4.095-8.47-9.156c0-5.06 3.784-9.156 8.47-9.156zm-57.656 2.03a9.432 9.432 0 0 1 9.437 9.438v60.813H349v-60.595c-.002-.073 0-.145 0-.22a9.432 9.432 0 0 1 9.438-9.436zm-61.75 31.563c6.14 0 11.093 4.954 11.093 11.095 0 .042.002.084 0 .125v27.47h-22.217V424.5v-.125c0-6.14 4.983-11.094 11.125-11.094zm120.25 0c6.14 0 11.093 4.954 11.093 11.095 0 .042.002.084 0 .125v27.47h-22.217V424.5v-.125c0-6.14 4.983-11.094 11.125-11.094zM240.5 420.907a7.113 7.113 0 0 1 7.125 7.125v23.94h-14.28v-23.75-.19c0-3.944 3.21-7.124 7.155-7.124zm232.625 0a7.113 7.113 0 0 1 7.125 7.125v23.94h-14.28v-23.75-.19c0-3.944 3.21-7.124 7.155-7.124z"/></g></svg>