<svg width="640" height="480" xmlns="http://www.w3.org/2000/svg"><title>LDS TEMPLE</title><title>Layer 1</title><path d="M348.781 1.656l-1.094 1.907 1.688.437 1.594 1.313-.438 3.343-.187 1.5s-.06.36 0 .531c.056.162.281.344.281.344l2.156 2.063V23.28l.969.219.563 6.688h1.468v2.406c-2.122.467-3.719 2.331-3.719 4.593 0 1.723.937 3.235 2.313 4.063h-1.156l-11.375 76.031v5.594h-1.281V117.5h-1.188l-1.813-9.125c.343-.138.594-.467.594-.844 0-.502-.441-.906-.969-.906-.527 0-.968.404-.968.906 0 .383.273.71.625.844L335 117.5h-1.156v6.531h.531v28.375h-.75v-3.812h-1.406l-2.094-11.813c.469-.189.813-.641.813-1.156 0-.687-.591-1.25-1.313-1.25s-1.313.563-1.313 1.25c0 .524.332.973.813 1.156l-2.094 11.813h-1.406v7.75h.781v24h-1.75v-4.938h-1.625l-2.469-12.281c.487-.196.875-.653.875-1.188 0-.713-.625-1.28-1.375-1.28-.749 0-1.375.567-1.375 1.28 0 .544.376.998.875 1.188l-2.468 12.281h-1.625v9.219h.875v75h-8.188v-4.531h-7.469v7.406h-5.937v-4.125h-7.438v7h-8.187v-68.688h.719v-7.437h-1.313l-2-9.906c.404-.154.688-.53.688-.969 0-.576-.488-1.063-1.094-1.063-.606 0-1.094.487-1.094 1.063 0 .432.294.81.688.969l-2 9.906h-1.313v4H271v-19.406h.625v-6.25H270.5l-1.719-9.563c.39-.148.688-.514.688-.937 0-.555-.48-1-1.063-1s-1.062.445-1.062 1c0 .416.277.785.656.937l-1.688 9.563h-1.156v3.062h-.594V147.72H265v-5.25h-.969l-1.469-7.375c.285-.108.5-.378.5-.688 0-.405-.355-.75-.78-.75-.427 0-.782.345-.782.75 0 .304.223.576.5.688l-1.469 7.375h-.969v4.312H258.5v-4.5l-9.188-61.469h-1c1.094-.618 1.844-1.733 1.844-3.03 0-1.705-1.254-3.159-2.937-3.5v-3.344c.76-.295 1.281-.983 1.281-1.813s-.52-1.518-1.281-1.813v-3.156h-1.563v3.156c-.761.295-1.312.983-1.312 1.813s.55 1.518 1.312 1.813v3.343c-1.684.342-2.969 1.796-2.969 3.5 0 1.298.751 2.413 1.844 3.031h-1l-9.187 61.47v4.5h-1.063v-4.313h-.937l-1.469-7.375a.747.747 0 0 0 .469-.688c0-.405-.355-.75-.781-.75a.748.748 0 0 0-.75.75c0 .31.184.58.468.688l-1.469 7.375h-.937v5.25h.406v22.937h-.594v-3.062h-1.125l-1.718-9.563c.379-.152.687-.521.687-.937 0-.555-.479-1-1.062-1-.583 0-1.063.445-1.063 1 0 .423.267.79.656.937l-1.687 9.563h-1.125v6.25h.594v19.406h-1.406v-4h-1.313l-1.969-9.906c.394-.159.688-.537.688-.969 0-.576-.52-1.063-1.125-1.063-.606 0-1.094.487-1.094 1.063 0 .44.283.815.688.969l-2 9.906h-1.282v7.438h.688v279.875h286.156V196.688h.688v-7.438h-1.282l-2-9.906c.404-.154.688-.53.688-.969 0-.576-.488-1.063-1.094-1.063-.606 0-1.094.487-1.094 1.063 0 .432.294.81.688.969l-2 9.906h-1.313v4h-1.406v-19.406h.625v-6.25h-1.156l-1.688-9.563c.39-.148.688-.514.688-.937 0-.555-.48-1-1.063-1s-1.062.445-1.062 1c0 .416.277.785.656.937l-1.688 9.563h-1.156v3.062h-.594V147.72h.438v-5.25h-.969l-1.469-7.375c.285-.108.5-.378.5-.688 0-.405-.355-.75-.78-.75-.427 0-.782.345-.782.75 0 .304.223.576.5.688l-1.5 7.375h-.938v4.312h-1.062v-4.5l-9.188-61.469h-1c1.094-.618 1.844-1.733 1.844-3.03 0-1.705-1.254-3.159-2.937-3.5v-3.344c.746-.301 1.281-.993 1.281-1.813s-.535-1.512-1.281-1.813v-3.156h-1.563v3.156c-.761.295-1.312.983-1.312 1.813s.55 1.518 1.312 1.813v3.343c-1.684.342-2.969 1.796-2.969 3.5 0 1.298.751 2.413 1.844 3.031h-1l-9.187 61.47v4.5h-1.063v-4.313h-.937l-1.469-7.375a.747.747 0 0 0 .469-.688c0-.405-.355-.75-.781-.75a.748.748 0 0 0-.75.75c0 .31.184.58.468.688l-1.469 7.375h-.937v5.25h.406v22.937h-.594v-3.062h-1.125l-1.718-9.563c.379-.152.687-.521.687-.937 0-.555-.479-1-1.062-1-.583 0-1.063.445-1.063 1 0 .423.267.79.656.937l-1.687 9.563h-1.156v6.25h.625v19.406h-1.406v-4h-1.313l-1.969-9.906c.394-.159.688-.537.688-.969 0-.576-.52-1.063-1.125-1.063-.606 0-1.094.487-1.094 1.063 0 .44.283.815.688.969l-2 9.906h-1.282v7.438h.688v68.687h-8.156v-7h-7.47v4.125h-5.937v-7.406h-7.469v4.531h-8.187v-75h.875v-9.219H396.5l-2.438-12.281c.5-.19.844-.644.844-1.188 0-.713-.626-1.28-1.375-1.28s-1.344.567-1.344 1.28c0 .535.357.992.844 1.188l-2.469 12.281h-1.593v4.938h-1.781v-24h.78v-7.75h-1.406l-2.093-11.813a1.24 1.24 0 0 0 .812-1.156c0-.687-.59-1.25-1.312-1.25-.722 0-1.313.563-1.313 1.25 0 .515.375.967.844 1.156l-2.094 11.813H380v3.812h-.781v-28.375h.562V117.5h-1.187l-1.813-9.125a.904.904 0 0 0 .594-.844c0-.502-.441-.906-.969-.906-.527 0-.969.404-.969.906 0 .377.283.706.625.844l-1.843 9.125h-1.156v5.375h-1.313v-5.594L360.375 41.25h-1.156a4.752 4.752 0 0 0 2.312-4.063c0-2.262-1.597-4.126-3.719-4.593v-2.688l1.157-.875v-5.25l.875-.562-.063-7.282 2.656 5.594s.336-.473.407-.718c.113-.394-.094-1.094-.094-1.094l-2.156-6.875-.344-.688-.438-.312h-1.718s.02-2.114-.188-3.156c-.07-.355-.312-1.063-.312-1.063s-.231-.604-.469-.781c-.298-.223-.66-.208-1.031-.219-.35-.01-.649-.01-.938.188-.162.111-.406.468-.406.468l-.125.5-4.688-4.375-1.156-1.75zm9.656 218.156a9.432 9.432 0 0 1 9.438 9.438v41.063H349v-40.844c-.002-.074 0-.145 0-.219a9.432 9.432 0 0 1 9.438-9.438zM240.5 244.063c3.945 0 7.125 3.212 7.125 7.157v21.56h-14.281v-21.562c0-3.945 3.21-7.156 7.156-7.156zm232.625 0c3.945 0 7.125 3.212 7.125 7.157v21.56h-14.281v-21.562c0-3.945 3.211-7.156 7.156-7.156zm-114.688 45.5a9.432 9.432 0 0 1 9.438 9.438v60.813H349V299.22c-.002-.074 0-.145 0-.219a9.432 9.432 0 0 1 9.438-9.438zM240.5 290.938a7.113 7.113 0 0 1 7.125 7.125v21.563h-14.281v-21.562c0-3.945 3.21-7.125 7.156-7.125zm232.625 0a7.112 7.112 0 0 1 7.125 7.125v21.563h-14.281v-21.562c0-3.945 3.211-7.125 7.156-7.125zM297.5 294c4.686 0 8.469 4.127 8.469 9.188 0 5.06-3.783 9.156-8.469 9.156s-8.5-4.096-8.5-9.156c0-5.061 3.814-9.188 8.5-9.188zm118.594 0c4.686 0 8.5 4.127 8.5 9.188 0 5.06-3.814 9.156-8.5 9.156s-8.469-4.096-8.469-9.156c0-5.061 3.783-9.188 8.469-9.188zM240.5 332.125a7.113 7.113 0 0 1 7.125 7.125v22.718h-14.281V339.25c0-3.945 3.21-7.125 7.156-7.125zm57 0a7.113 7.113 0 0 1 7.125 7.125v22.718h-14.281v-22.53h.031c0-.056-.031-.132-.031-.188 0-3.945 3.211-7.125 7.156-7.125zm118.594 0c3.944 0 7.156 3.18 7.156 7.125 0 .056-.031.132-.031.188h.031v22.53h-14.281V339.25a7.112 7.112 0 0 1 7.125-7.125zm57.031 0a7.113 7.113 0 0 1 7.125 7.125v22.718h-14.281V339.25c0-3.945 3.211-7.125 7.156-7.125zM240.5 376.938a7.113 7.113 0 0 1 7.125 7.125V408h-14.281v-23.937c0-3.945 3.21-7.125 7.156-7.125zm232.625 0a7.113 7.113 0 0 1 7.125 7.125V408h-14.281v-23.937c0-3.945 3.211-7.125 7.156-7.125zm-175.625 2.75c4.686 0 8.469 4.095 8.469 9.156 0 5.06-3.783 9.156-8.469 9.156s-8.5-4.095-8.5-9.156c0-5.061 3.814-9.156 8.5-9.156zm118.594 0c4.686 0 8.5 4.095 8.5 9.156 0 5.06-3.814 9.156-8.5 9.156s-8.469-4.095-8.469-9.156c0-5.061 3.783-9.156 8.469-9.156zm-57.656 2.03a9.432 9.432 0 0 1 9.437 9.438v60.813H349v-60.594c-.002-.073 0-.145 0-.219a9.432 9.432 0 0 1 9.438-9.437zm-61.75 31.563a11.075 11.075 0 0 1 11.093 11.094v27.594h-22.219v-27.594c0-6.141 4.984-11.094 11.125-11.094zm120.25 0a11.075 11.075 0 0 1 11.093 11.094v27.594h-22.219v-27.594c0-6.141 4.984-11.094 11.125-11.094zM240.5 420.906a7.113 7.113 0 0 1 7.125 7.125v23.938h-14.281v-23.938c0-3.945 3.21-7.125 7.156-7.125zm232.625 0a7.113 7.113 0 0 1 7.125 7.125v23.938h-14.281v-23.938c0-3.945 3.211-7.125 7.156-7.125z" fill="#fff"/></svg>